# xmcd
#
# Track frame offsets:
#	150
#	15984
#	30960
#	50372
#	70308
#	86906
#	106245
#	120886
#	126730
#	147420
#	160799
#	179348
#	193934
#	213256
#
# Disc length: 2879 seconds
#
# Revision: 2
# Processed by: cddbd v1.5.2PL0 Copyright (c) Steve Scherf et al.
# Submitted via: audiograbber 1.83.01
#
DISCID=bf0b3d0e
DTITLE=Valient Thorr - Immortalizer
DYEAR=2008
DGENRE=hard rock
TTITLE0=I Hope The Ghosts Of The Dead Haunt Yr Soul Forever
TTITLE1=Infinite Lives
TTITLE2=Mask Of Sanity
TTITLE3=Tomorrow Police
TTITLE4=No Holds Barred
TTITLE5=Parable Of Daedalus
TTITLE6=Birdhead Looking @ Goldenhands
TTITLE7=Vernal Equinox
TTITLE8=1000 Winters In A Row
TTITLE9=Red Flag
TTITLE10=Nomadic Sacrifice
TTITLE11=Steeplechase
TTITLE12=Tackle The Walrus
TTITLE13=(bonus track)
EXTD=
EXTT0=
EXTT1=
EXTT2=
EXTT3=
EXTT4=
EXTT5=
EXTT6=
EXTT7=
EXTT8=
EXTT9=
EXTT10=
EXTT11=
EXTT12=
EXTT13=
PLAYORDER=
